<?xml version="1.0" encoding="UTF-8"?>
<svg xmlns="http://www.w3.org/2000/svg" xmlns:xlink="http://www.w3.org/1999/xlink" width="24pt" height="24pt" viewBox="0 0 24 24" version="1.1">
<g id="surface897124">
<path style="fill-rule:evenodd;fill:rgb(0%,0%,0%);fill-opacity:1;stroke-width:22;stroke-linecap:butt;stroke-linejoin:round;stroke:rgb(0%,0%,0%);stroke-opacity:1;stroke-miterlimit:10;" d="M 93.164394 14.324496 L 93.164394 78.835606 L 157.675504 78.835606 L 157.675504 93.164394 L 93.164394 93.164394 L 93.164394 157.675504 L 78.835606 157.675504 L 78.835606 93.164394 L 14.324496 93.164394 L 14.324496 78.835606 L 78.835606 78.835606 L 78.835606 14.324496 Z M 93.164394 14.324496 " transform="matrix(0.123767,0,0,0.123767,1.356,1.356)"/>
<path style=" stroke:none;fill-rule:evenodd;fill:rgb(0%,0%,0%);fill-opacity:1;" d="M 11.113281 3.128906 L 11.113281 11.113281 L 3.128906 11.113281 L 3.128906 12.886719 L 11.113281 12.886719 L 11.113281 20.871094 L 12.886719 20.871094 L 12.886719 12.886719 L 20.871094 12.886719 L 20.871094 11.113281 L 12.886719 11.113281 L 12.886719 3.128906 Z M 11.113281 3.128906 "/>
</g>
</svg>
