<svg width="15" height="15" viewBox="0 0 15 15" fill="none" xmlns="http://www.w3.org/2000/svg">
<path fill-rule="evenodd" clip-rule="evenodd" d="M8.62914 8.11133V13.4213C8.62914 13.6225 8.54854 13.8154 8.40506 13.9577C8.26158 14.1 8.06698 14.1799 7.86407 14.1799C7.66116 14.1799 7.46656 14.1 7.32308 13.9577C7.1796 13.8154 7.09899 13.6225 7.09899 13.4213V8.11133H1.74347C1.54056 8.11133 1.34596 8.03141 1.20248 7.88915C1.059 7.74689 0.978394 7.55395 0.978394 7.35276C0.978394 7.15158 1.059 6.95863 1.20248 6.81637C1.34596 6.67411 1.54056 6.59419 1.74347 6.59419H7.09899V1.2842C7.09899 1.08302 7.1796 0.890074 7.32308 0.747815C7.46656 0.605555 7.66116 0.525635 7.86407 0.525635C8.06698 0.525635 8.26158 0.605555 8.40506 0.747815C8.54854 0.890074 8.62914 1.08302 8.62914 1.2842V6.59419H13.9847C14.1876 6.59419 14.3822 6.67411 14.5257 6.81637C14.6691 6.95863 14.7497 7.15158 14.7497 7.35276C14.7497 7.55395 14.6691 7.74689 14.5257 7.88915C14.3822 8.03141 14.1876 8.11133 13.9847 8.11133H8.62914Z" fill="#1C2848"/>
</svg>
