<svg width="25" height="22" viewBox="0 0 25 22" fill="none" xmlns="http://www.w3.org/2000/svg">
<path d="M12.2407 21.1886L11.8194 20.8455C2.76307 13.6414 0.305908 11.1028 0.305908 6.98622C0.305908 3.5557 3.11409 0.811279 6.62432 0.811279C9.5027 0.811279 11.1174 2.38932 12.2407 3.62431C13.3639 2.38932 14.9787 0.811279 17.857 0.811279C21.3673 0.811279 24.1754 3.5557 24.1754 6.98622C24.1754 11.1028 21.7183 13.6414 12.6619 20.8455L12.2407 21.1886ZM6.62432 2.18349C3.88634 2.18349 1.71 4.31041 1.71 6.98622C1.71 10.4854 3.95654 12.8181 12.2407 19.4047C20.5248 12.8181 22.7714 10.4854 22.7714 6.98622C22.7714 4.31041 20.595 2.18349 17.857 2.18349C15.3999 2.18349 14.066 3.62431 13.0129 4.79069L12.2407 5.68262L11.4684 4.79069C10.4154 3.62431 9.08147 2.18349 6.62432 2.18349Z" fill="#020F2F"/>
</svg>
