<svg width="102" height="102" viewBox="0 0 102 102" fill="none" xmlns="http://www.w3.org/2000/svg">
<g clip-path="url(#clip0)">
<path d="M65.0129 27.9722C64.2475 27.9745 63.6251 28.5968 63.6227 29.3624C63.6216 29.7452 63.7758 30.0912 64.0258 30.3413C64.2759 30.5913 64.622 30.7456 65.0047 30.7444L65.0159 30.7443C65.7813 30.7421 66.398 30.1197 66.4004 29.3542C66.4027 28.5886 65.7784 27.9701 65.0129 27.9722Z" fill="#FFA3A3"/>
<path d="M37.1108 28.054C36.3454 28.0562 35.723 28.6786 35.7206 29.4442C35.7195 29.827 35.8737 30.173 36.1237 30.4231C36.3738 30.6731 36.7199 30.8274 37.1026 30.8261L37.1138 30.8261C37.8792 30.8239 38.4959 30.2015 38.4983 29.436C38.5006 28.6704 37.8762 28.0518 37.1108 28.054Z" fill="#FFA3A3"/>
<path d="M51.0382 32.9373C50.2727 32.946 49.6557 33.5737 49.66 34.3391C49.6621 34.7175 49.8156 35.0588 50.063 35.3062C50.3158 35.559 50.6668 35.7136 51.0538 35.7092L51.0594 35.7091C51.8249 35.7004 52.439 35.0728 52.4348 34.3073C52.4306 33.5417 51.8037 32.9285 51.0382 32.9373V32.9373Z" fill="#FFA3A3"/>
<path d="M61.5298 90.8152C62.4604 89.6164 62.0712 88.0876 61.9434 87.5853L59.5806 78.2971C59.8471 78.1239 60.098 77.922 60.3282 77.6914C61.1809 76.8374 61.6514 75.7076 61.6529 74.5147C61.6571 73.5714 61.3691 72.6724 60.8327 71.918C64.1814 68.882 67.4002 64.45 70.2067 58.9922C73.1989 53.1731 75.5274 46.4838 76.7635 40.157C77.1921 37.9661 76.989 36.3059 76.1425 35.0817C75.6717 34.401 75.0234 33.8937 74.2075 33.5649C74.1993 32.9843 74.1082 32.4085 73.9332 31.8579C75.1231 30.742 75.8291 29.1665 75.8311 27.5204C75.8357 25.9365 75.2237 24.4496 74.1074 23.3333C74.1067 23.3327 74.1057 23.3317 74.1051 23.331C73.0771 22.3042 71.7356 21.7052 70.2954 21.6217C69.3016 19.6762 67.3384 18.472 65.0467 18.4785C63.8053 18.482 62.6599 18.8428 61.7094 19.4808C61.45 18.4792 60.9295 17.5611 60.1798 16.8106C60.179 16.8098 60.1782 16.809 60.1775 16.8082C59.1496 15.7804 57.8072 15.1799 56.3643 15.095C55.3694 13.1522 53.4057 11.9496 51.1149 11.9564C48.824 11.963 46.8534 13.177 45.8468 15.1259C44.4021 15.2193 43.0555 15.8285 42.0212 16.8639C41.2669 17.619 40.7411 18.5404 40.4759 19.5432C39.5292 18.9109 38.3861 18.5567 37.1448 18.5603C34.8528 18.567 32.8824 19.7827 31.8773 21.7344C30.4361 21.8264 29.0915 22.4333 28.0577 23.4658C26.9333 24.5888 26.3118 26.0804 26.307 27.6633C26.2995 29.3112 26.9967 30.8838 28.1796 31.9919C28.0015 32.5438 27.9069 33.1201 27.8953 33.7008C27.0779 34.0343 26.4268 34.5448 25.9522 35.2277C25.0978 36.4567 24.8837 38.1188 25.2981 40.3118C25.9094 43.5152 26.7831 46.7761 27.895 50.004C27.9653 50.2082 28.0788 50.3852 28.2218 50.5282C28.5845 50.8909 29.1371 51.0353 29.6563 50.8538C30.3803 50.6007 30.7653 49.8099 30.5164 49.0874C29.4473 45.9837 28.6078 42.8512 28.0215 39.7793C27.7605 38.398 27.8309 37.3682 28.2252 36.8011C28.2684 36.7389 28.3534 36.6184 28.5273 36.4896C28.8051 37.0364 29.1691 37.5421 29.615 37.988C30.7315 39.1045 32.2187 39.7167 33.8027 39.7121C34.9732 39.7086 36.1187 39.3523 37.0854 38.7092C38.0484 39.3466 39.1919 39.6963 40.3624 39.6928C40.8814 39.6912 41.3905 39.6218 41.8806 39.4916C42.0494 40.7694 42.6267 41.9486 43.5513 42.8733L43.5537 42.8756C44.6699 43.9907 46.1561 44.6015 47.7336 44.5949C48.9217 44.594 50.0543 44.2459 51.022 43.5977C51.9857 44.2404 53.1155 44.5817 54.3002 44.5757C55.8821 44.5727 57.3717 43.9535 58.4947 42.8319C59.4261 41.9014 60.0112 40.7179 60.1877 39.4379C60.677 39.5652 61.1859 39.6316 61.7049 39.63C62.8753 39.6266 64.0209 39.2703 64.9876 38.6272C65.9505 39.2646 67.094 39.6142 68.2645 39.6107C70.5661 39.604 72.568 38.279 73.5556 36.355C73.731 36.4837 73.816 36.6049 73.8592 36.6671C74.2494 37.2314 74.3129 38.2594 74.0427 39.6401C71.6324 51.9779 65.3258 64.3875 58.5556 70.2428C58.1131 70.1003 57.6465 70.0259 57.1681 70.0273L55.2141 70.0331C57.5295 66.8058 59.1299 62.6195 60.0771 57.3334C60.2122 56.5791 59.711 55.8616 58.9577 55.7309C58.2042 55.6002 57.4839 56.1056 57.3487 56.8597C56.3018 62.7018 54.4348 67.0218 51.6497 70.0434L50.2384 70.0475C46.5984 66.1003 44.5777 59.9647 43.8934 50.8119C43.8365 50.0486 43.1713 49.4801 42.4079 49.5416C41.6446 49.6032 41.072 50.2716 41.129 51.0346C41.7652 59.5442 43.5449 65.6893 46.6723 70.0579L44.7041 70.0637C44.7033 70.0637 44.7026 70.0636 44.7019 70.0637C44.2244 70.0658 43.7642 70.1434 43.3317 70.2837C40.6226 67.9443 37.9357 64.497 35.5234 60.2531C35.1458 59.5887 34.3003 59.3602 33.6342 59.7414C32.9681 60.1225 32.7341 60.9697 33.1115 61.6335C35.2485 65.3932 37.6117 68.5867 40.0457 71.0207C40.3754 71.3505 40.7066 71.6644 41.0385 71.9658C40.5098 72.7038 40.1961 73.605 40.1932 74.5769C40.1916 75.8141 40.6932 76.935 41.5049 77.7467C41.7325 77.9743 41.9852 78.1764 42.2573 78.3511L39.8431 87.649C39.7121 88.1523 39.3141 89.6835 40.2378 90.8768C40.3079 90.9673 40.383 91.0527 40.4634 91.133C41.0894 91.759 42.0251 92.0741 43.2508 92.0705L58.5098 92.0257C59.8928 92.0224 60.9088 91.6148 61.5298 90.8152V90.8152ZM46.2132 17.8852C46.3245 17.8848 46.4485 17.8924 46.6033 17.9092C47.2638 17.9805 47.8845 17.5727 48.083 16.9371C48.5898 15.3135 49.9774 14.7315 51.1069 14.7282C52.2363 14.7249 53.62 15.2987 54.1176 16.9194C54.3123 17.5538 54.9308 17.958 55.5916 17.8829C55.7463 17.8653 55.8705 17.857 55.9823 17.8566C56.8259 17.8541 57.6175 18.1799 58.2117 18.7742L58.213 18.7754C58.8059 19.369 59.1306 20.1592 59.1272 21.0014C59.1264 21.2555 59.0954 21.505 59.0357 21.7482C57.8791 21.9703 56.8135 22.5316 55.96 23.3841C55.5359 23.8078 55.1835 24.2841 54.9085 24.798C53.8785 23.9343 52.5478 23.4411 51.0813 23.4455C49.6148 23.4497 48.2812 23.9507 47.2461 24.8205C46.9746 24.3092 46.6259 23.8359 46.2052 23.4152C46.2044 23.4144 46.2036 23.4135 46.2028 23.4127C45.3541 22.565 44.2915 22.0099 43.1367 21.7947C43.0784 21.5516 43.0487 21.302 43.0495 21.0471C43.0509 20.2062 43.3803 19.4143 43.9766 18.8171C44.5746 18.2186 45.3687 17.8877 46.2132 17.8852V17.8852ZM38.0961 35.9531C37.8337 35.6815 37.4735 35.5261 37.0947 35.5271C36.716 35.5282 36.3533 35.6843 36.0909 35.959C35.4894 36.5891 34.6795 36.9375 33.8108 36.94C32.9674 36.9425 32.1754 36.6165 31.5811 36.0221C30.9868 35.4278 30.6607 34.6359 30.6633 33.7923C30.6649 33.2462 30.8099 32.7053 31.0827 32.228C31.4566 31.5739 31.243 30.744 30.6007 30.3571C29.6429 29.7801 29.074 28.7718 29.0791 27.6575C29.0815 26.8133 29.4125 26.0192 30.0111 25.4214C30.6081 24.8249 31.4002 24.4957 32.2425 24.4941C32.386 24.4937 32.5085 24.4998 32.617 24.5131C33.284 24.5944 33.9158 24.1852 34.116 23.5422C34.6216 21.9178 36.0079 21.3355 37.1366 21.3322C38.2652 21.3289 39.6481 21.9032 40.1441 23.5243C40.3404 24.1663 40.9701 24.5718 41.6375 24.4865C41.746 24.4725 41.8684 24.4656 42.0135 24.4652C42.8543 24.4619 43.6443 24.7864 44.2379 25.3794L44.2393 25.3808C44.6174 25.7588 44.8856 26.2172 45.0309 26.7177C43.8859 26.9459 42.8324 27.5069 41.9875 28.3527C40.8659 29.4755 40.2465 30.9652 40.2437 32.5456C40.2393 34.0751 40.8066 35.4956 41.8089 36.5713C41.3688 36.7974 40.8785 36.919 40.3705 36.9204C39.5019 36.9233 38.6951 36.5802 38.0961 35.9531V35.9531ZM54.3069 41.8038C53.4425 41.8083 52.6335 41.4603 52.0296 40.8358C51.7703 40.5653 51.4086 40.412 51.0315 40.4131C50.6544 40.4142 50.293 40.5689 50.0309 40.8416C49.423 41.4739 48.6122 41.8225 47.7432 41.8232C46.9023 41.8266 46.1122 41.5019 45.5186 40.909C45.5182 40.9086 45.5178 40.9082 45.5173 40.9077C44.9231 40.3136 44.5973 39.5218 44.5998 38.6782C44.6014 38.1266 44.7459 37.5873 45.0176 37.1188C45.3398 36.5634 45.236 35.8784 44.8035 35.446C44.7255 35.368 44.6367 35.2982 44.5378 35.2388C43.5816 34.6652 43.0124 33.6555 43.0157 32.5362C43.0171 31.6953 43.3465 30.9034 43.9428 30.3062C44.5407 29.7078 45.3349 29.3768 46.1789 29.3743C46.2908 29.3739 46.4148 29.3816 46.5694 29.3984C47.2299 29.4697 47.8507 29.0619 48.0491 28.4263C48.5559 26.8027 49.9434 26.2208 51.073 26.2174C52.2024 26.2141 53.5863 26.7878 54.0836 28.4085C54.2785 29.0429 54.8971 29.4472 55.558 29.3719C55.7122 29.3543 55.8364 29.346 55.9484 29.3456C56.792 29.3431 57.5836 29.6689 58.1778 30.2632L58.1791 30.2644C58.7721 30.858 59.0967 31.6482 59.0934 32.4905C59.09 33.6083 58.5151 34.6214 57.5554 35.2006C56.9065 35.5923 56.6881 36.4299 57.0645 37.0833C57.3335 37.5503 57.4748 38.0887 57.4732 38.6403C57.4708 39.4845 57.1398 40.2786 56.5412 40.8765C55.9444 41.4729 55.1524 41.8023 54.3069 41.8038V41.8038ZM68.2727 36.839C67.404 36.8415 66.5981 36.4966 65.9984 35.8714C65.7393 35.5984 65.376 35.4442 64.9972 35.4454C64.6185 35.4465 64.2557 35.6025 63.9934 35.8773C63.3917 36.5073 62.5819 36.8557 61.7132 36.8582C61.2053 36.8597 60.7158 36.741 60.277 36.5174C61.2855 35.436 61.8613 34.0124 61.8658 32.484C61.8722 30.902 61.2615 29.4159 60.1465 28.2996C60.1457 28.2988 60.1449 28.298 60.1442 28.2972C59.3046 27.4577 58.2554 26.9037 57.1128 26.6825C57.2613 26.1806 57.5327 25.7201 57.9135 25.3396C58.5106 24.7432 59.3026 24.4139 60.145 24.4123C60.2887 24.4119 60.4112 24.418 60.5193 24.4312C61.1863 24.5126 61.8182 24.1033 62.0183 23.4603C62.524 21.836 63.9103 21.2537 65.0391 21.2505C66.1676 21.2471 67.5507 21.8212 68.0467 23.4427C68.243 24.0849 68.8732 24.4904 69.5408 24.4048C69.6483 24.391 69.7706 24.3842 69.9161 24.3837C70.757 24.3802 71.5471 24.705 72.1408 25.2978L72.142 25.2991C72.7362 25.8933 73.062 26.685 73.0594 27.5309C73.058 28.6428 72.4833 29.6545 71.522 30.2372C70.8776 30.6278 70.659 31.4589 71.029 32.1109C71.299 32.5865 71.4409 33.1267 71.4392 33.6727C71.4369 34.5162 71.1062 35.3101 70.5084 35.9079C69.9101 36.506 69.1162 36.8365 68.2727 36.839ZM42.9656 74.5671C42.9683 73.6176 43.7449 72.8416 44.697 72.8363L57.1601 72.7998C57.6189 72.7985 58.0514 72.9776 58.3782 73.3044L58.3792 73.3053C58.7046 73.6313 58.8828 74.0621 58.8807 74.5226C58.8801 74.9787 58.6995 75.4105 58.372 75.7384C58.0432 76.0677 57.6092 76.2498 57.1497 76.2512L44.6882 76.2876C43.7372 76.2889 42.9643 75.5161 42.9656 74.5671V74.5671ZM58.5178 89.2544L43.2589 89.2991C42.7039 89.3008 42.4892 89.2008 42.4373 89.1704C42.4214 89.1127 42.3821 88.8851 42.5259 88.3322L44.9339 79.0592L56.9012 79.0242L59.2568 88.2836C59.3973 88.8354 59.3567 89.063 59.3405 89.1209C59.2882 89.1514 59.0729 89.2528 58.5178 89.2544Z" fill="url(#paint0_linear)"/>
<path d="M58.5063 51.8521C58.6548 52.0006 58.8397 52.1173 59.0536 52.1873C59.7799 52.4247 60.566 52.023 60.8078 51.2954C61.0495 50.5676 60.6568 49.7849 59.9303 49.5479C59.204 49.3102 58.4193 49.7078 58.1776 50.4355L58.1747 50.4439C58.0041 50.9575 58.1502 51.496 58.5063 51.8521Z" fill="#FFA499"/>
<path d="M31.5208 53.9921C30.7554 53.9879 30.1277 54.6048 30.1189 55.3704L30.1188 55.3759C30.1143 55.7623 30.2684 56.1118 30.5205 56.3638C30.7679 56.6113 31.1097 56.7647 31.4889 56.7669C32.2543 56.7711 32.882 56.1514 32.8908 55.3859C32.8996 54.6203 32.2861 53.9963 31.5208 53.9921V53.9921Z" fill="#FFA498"/>
</g>
<defs>
<linearGradient id="paint0_linear" x1="30.4427" y1="24.922" x2="63.7474" y2="87.7153" gradientUnits="userSpaceOnUse">
<stop stop-color="#FF9096" stop-opacity="0.83"/>
<stop offset="1" stop-color="#FFA079" stop-opacity="0.92"/>
</linearGradient>
<clipPath id="clip0">
<rect x="51.1477" y="0.373779" width="71.3149" height="71.7319" transform="rotate(45 51.1477 0.373779)" fill="white"/>
</clipPath>
</defs>
</svg>
