<svg width="76" height="80" viewBox="0 0 76 80" fill="none" xmlns="http://www.w3.org/2000/svg">
<path d="M71.2729 42.2623H69.9397C69.9493 41.1878 69.7561 40.0503 69.3693 38.9512C69.0213 37.9625 68.5361 37.0556 67.9518 36.2816V29.9517C67.9516 13.4362 54.5154 0 37.9997 0C21.4841 0 8.04817 13.4362 8.04817 29.9517V36.0461C8.04817 36.1178 8.05567 36.1877 8.06786 36.2558C7.47458 37.0355 6.98255 37.9516 6.63067 38.9512C6.2438 40.0503 6.05067 41.188 6.06021 42.2623H4.72708C2.61552 42.2623 0.897705 43.9802 0.897705 46.0917C0.897705 48.2033 2.61567 49.9211 4.72708 49.9211H5.61911L13.1718 74.5081C14.1807 77.793 17.1677 80 20.604 80H55.3955C58.8319 80 61.8188 77.793 62.8277 74.508L70.3807 49.9211H71.2727C73.3843 49.9211 75.1021 48.2033 75.1021 46.0917C75.1022 43.9803 73.3843 42.2623 71.2729 42.2623ZM66.2535 37.9394C66.6171 38.4695 66.9271 39.0791 67.1563 39.7303C67.4572 40.5852 67.6061 41.4564 67.595 42.2625H60.5788C60.0243 40.0903 58.0419 38.4706 55.7116 38.4706C53.3815 38.4706 51.3991 40.0903 50.8444 42.2625H44.055C44.0441 41.4563 44.193 40.585 44.4938 39.7303C44.9382 38.4675 45.6849 37.3589 46.5426 36.6886C46.7351 36.5381 47.0126 36.3498 47.3297 36.2166C47.3376 36.2136 47.3457 36.2114 47.3535 36.2083C47.6783 36.0764 47.981 36.0275 48.2569 36.0616C48.2702 36.0633 48.2835 36.0662 48.2968 36.0684C48.3288 36.0734 48.3607 36.0783 48.3919 36.0855C48.4372 36.0961 48.4826 36.1089 48.5276 36.1247C48.6744 36.1762 48.9919 36.3184 49.4677 36.69C49.8829 37.0142 50.463 37.0219 50.8866 36.7089C51.3102 36.3959 51.4732 35.8391 51.2854 35.347C51.0857 34.8245 50.9713 34.3388 50.9713 34.0144C50.9713 33.8542 51.0049 33.6917 51.068 33.5302C51.3013 33.2739 51.5076 32.993 51.6846 32.6927C52.4916 31.9669 53.9286 31.4067 55.7116 31.4067C57.0402 31.4067 58.3254 31.7389 59.2413 32.3177C60.008 32.8056 60.4519 33.4259 60.4519 34.0144C60.4519 34.39 60.298 34.9791 60.0404 35.5903C59.828 36.0934 59.9911 36.6762 60.4333 36.9964C60.8757 37.3164 61.4804 37.2891 61.8919 36.9303C62.5386 36.3666 62.968 36.1791 63.1229 36.1247C63.8813 35.8578 64.6919 36.3633 65.1077 36.6884C65.2919 36.8325 65.4707 36.9978 65.6429 37.1795C65.7271 37.5127 65.953 37.7884 66.2535 37.9394ZM58.0857 42.2623H53.3374C53.7861 41.405 54.6857 40.8164 55.7115 40.8164C56.7374 40.8164 57.6371 41.4052 58.0857 42.2623ZM37.8863 38.4705C36.3707 38.4705 35.0025 39.1561 34.078 40.2325C33.9869 39.8036 33.8675 39.3745 33.7185 38.9512C33.4572 38.2089 33.1191 37.5122 32.7194 36.8834C32.8397 36.8452 32.9552 36.787 33.061 36.7089C33.4846 36.3961 33.6477 35.8392 33.4599 35.3472C33.2604 34.8244 33.146 34.3386 33.146 34.0142C33.146 33.1973 33.9497 32.3777 35.2438 31.8747C35.2441 31.8745 35.2444 31.8745 35.2447 31.8744C36.0324 31.5684 36.9458 31.4066 37.8861 31.4066C40.6797 31.4066 42.6265 32.7808 42.6265 34.0142C42.6265 34.3898 42.4726 34.9789 42.2149 35.5902C42.0026 36.0933 42.1657 36.6761 42.6079 36.9963C42.7546 37.1023 42.9193 37.1686 43.0886 37.1989C42.7718 37.7427 42.4993 38.3308 42.2808 38.9512C42.1061 39.4477 41.9708 39.952 41.8758 40.4548C40.9546 39.2509 39.5041 38.4705 37.8863 38.4705ZM40.2607 42.2623H35.5124C35.9611 41.405 36.8607 40.8164 37.8865 40.8164C38.9121 40.8164 39.8118 41.4052 40.2607 42.2623ZM28.4193 25.127C25.8233 25.127 23.681 27.1061 23.4218 29.6347C22.4269 29.2678 21.285 29.0608 20.0611 29.0608C19.9247 29.0608 19.7897 29.0641 19.6555 29.0691C19.6313 29.07 19.6071 29.0716 19.5829 29.0727C19.4635 29.078 19.345 29.0853 19.2275 29.0945C19.2166 29.0955 19.2058 29.0964 19.1949 29.0972C18.3418 29.1669 17.5394 29.338 16.8129 29.5944C16.6838 28.6291 16.8144 27.4866 17.2015 26.3867C18.1291 23.7514 20.0733 22.3719 21.235 22.7811C21.3819 22.8328 21.6996 22.975 22.1754 23.3466C22.5905 23.6708 23.1707 23.6781 23.5943 23.3653C24.0179 23.0523 24.181 22.4955 23.993 22.0034C23.7933 21.4809 23.679 20.9953 23.679 20.6708C23.679 19.4373 25.6257 18.0631 28.4193 18.0631C31.2129 18.0631 33.1596 19.4373 33.1596 20.6708C33.1596 21.0464 33.0057 21.6355 32.748 22.2467C32.5357 22.7498 32.6988 23.3327 33.141 23.6528C33.5833 23.9728 34.188 23.9455 34.5996 23.5867C34.8322 23.3839 35.0366 23.2298 35.2104 23.1131C35.196 23.1331 35.1825 23.1539 35.1683 23.1741C35.1285 23.2305 35.0891 23.2873 35.0504 23.3452C35.0266 23.3805 35.0032 23.4161 34.9799 23.452C34.943 23.5086 34.9066 23.5658 34.8708 23.6236C34.8472 23.6616 34.8238 23.6997 34.8007 23.738C34.7663 23.7952 34.7324 23.8531 34.699 23.9114C34.6761 23.9513 34.6532 23.9913 34.6308 24.0316C34.5983 24.0902 34.5666 24.1494 34.535 24.2089C34.5133 24.2502 34.4913 24.2911 34.47 24.3328C34.4391 24.3934 34.4091 24.4548 34.3791 24.5164C34.359 24.558 34.3385 24.5992 34.3188 24.6412C34.2888 24.7053 34.2599 24.7702 34.2311 24.8352C34.213 24.8758 34.1946 24.9161 34.1769 24.9572C34.1463 25.0286 34.1172 25.1009 34.088 25.1733C34.0738 25.2087 34.0588 25.2437 34.0449 25.2794C34.0025 25.3878 33.9618 25.4973 33.9229 25.608C33.8843 25.7178 33.848 25.828 33.8133 25.9383C33.8025 25.9725 33.7925 26.0069 33.7821 26.0413C33.7585 26.1191 33.7357 26.1969 33.714 26.2748C33.7033 26.313 33.693 26.3509 33.6829 26.3891C33.6619 26.4681 33.6421 26.547 33.623 26.6261C33.615 26.6592 33.6068 26.6922 33.5991 26.7253C33.5736 26.8361 33.5497 26.947 33.5282 27.0578C33.5265 27.0669 33.525 27.0758 33.5233 27.0848C33.5038 27.1867 33.4861 27.2886 33.47 27.3903C33.4646 27.425 33.4597 27.4597 33.4546 27.4944C33.4432 27.5719 33.4325 27.6492 33.423 27.7264C33.4183 27.7639 33.414 27.8014 33.4097 27.8387C33.4008 27.9187 33.3932 27.9983 33.3865 28.078C33.3838 28.1088 33.3807 28.1395 33.3783 28.1702C33.37 28.2792 33.3635 28.388 33.3593 28.4961C33.3586 28.5114 33.3586 28.5264 33.3582 28.5417C33.355 28.6345 33.3533 28.727 33.353 28.8189C33.353 28.8534 33.3535 28.8878 33.3538 28.9223C33.3546 28.9966 33.3561 29.0705 33.3588 29.1441C33.36 29.1798 33.3615 29.2155 33.3632 29.2511C33.3635 29.2567 33.3635 29.2623 33.3638 29.268C32.9452 26.9175 30.888 25.127 28.4193 25.127ZM31.0974 30.1509C31.0974 31.6277 29.896 32.8289 28.4194 32.8289C27.7399 32.8289 27.1207 32.5725 26.648 32.1539C26.4704 31.8389 26.2477 31.5412 25.9866 31.2634C25.8308 30.9241 25.7416 30.5481 25.7416 30.1509C25.7416 28.6744 26.943 27.473 28.4196 27.473C29.8961 27.473 31.0974 28.6744 31.0974 30.1509ZM33.4543 30.1245C33.4504 30.1267 33.4468 30.1291 33.4427 30.1312C33.4425 30.0966 33.441 30.0623 33.44 30.0278C33.4449 30.06 33.449 30.0925 33.4543 30.1245ZM42.3302 30.1288C41.1227 29.4578 39.5832 29.0608 37.8865 29.0608C37.1458 29.0608 36.4127 29.1397 35.7158 29.2922C35.7157 29.2894 35.7152 29.2866 35.715 29.2838C35.7075 29.1834 35.7033 29.0813 35.7011 28.9781C35.7005 28.9506 35.7007 28.9228 35.7004 28.895C35.6997 28.8139 35.7007 28.732 35.7032 28.6497C35.704 28.6214 35.7046 28.5933 35.7058 28.565C35.7105 28.4587 35.7171 28.3517 35.7269 28.2436C35.7282 28.2302 35.73 28.2166 35.7313 28.2031C35.7405 28.1075 35.7521 28.0112 35.7652 27.9145C35.7696 27.8828 35.7743 27.8509 35.779 27.8192C35.7924 27.73 35.8075 27.6405 35.8243 27.5508C35.8285 27.5281 35.8321 27.5056 35.8366 27.483C35.8582 27.3733 35.8824 27.2634 35.9091 27.1536C35.9158 27.1261 35.9232 27.0988 35.9302 27.0714C35.9521 26.9852 35.9755 26.8987 36.0005 26.8127C36.0097 26.7808 36.0188 26.7491 36.0285 26.7172C36.0616 26.6078 36.0965 26.4988 36.1347 26.3902C36.135 26.3891 36.1355 26.388 36.1358 26.3869C36.1661 26.3008 36.198 26.2156 36.231 26.1313C36.2427 26.1013 36.2552 26.0717 36.2672 26.0419C36.2886 25.9889 36.3104 25.9361 36.3327 25.8838C36.3488 25.8461 36.3655 25.8089 36.3822 25.7717C36.4015 25.7289 36.4208 25.6862 36.4407 25.6441C36.4602 25.6025 36.48 25.5611 36.5002 25.52C36.5177 25.4844 36.5357 25.4489 36.5536 25.4137C36.5766 25.3689 36.5994 25.3242 36.6232 25.28C36.6383 25.2517 36.6538 25.2239 36.6693 25.1961C36.6963 25.147 36.7233 25.098 36.7511 25.0498C36.7575 25.0389 36.7641 25.0284 36.7705 25.0175C36.8771 24.8364 36.9897 24.6627 37.1079 24.4969C37.1211 24.4783 37.1343 24.4592 37.1477 24.4408C37.1791 24.3975 37.2111 24.3555 37.2433 24.3134C37.2615 24.2898 37.2796 24.2661 37.2979 24.2428C37.3279 24.2047 37.3583 24.1672 37.389 24.1302C37.411 24.1036 37.4332 24.0773 37.4554 24.0512C37.4836 24.0181 37.5121 23.9853 37.5408 23.9533C37.568 23.923 37.5955 23.8933 37.6232 23.8639C37.6482 23.8372 37.673 23.8103 37.6982 23.7844C37.7375 23.7441 37.7772 23.705 37.8172 23.6664C37.8316 23.6525 37.8457 23.638 37.8602 23.6244C37.9179 23.5702 37.9761 23.5177 38.035 23.4675C38.0355 23.4672 38.0358 23.4669 38.0363 23.4664C38.2183 23.3114 38.4058 23.1759 38.5969 23.063C38.5982 23.0622 38.5994 23.0613 38.6007 23.0605C39.0361 22.803 39.6165 22.5864 40.1693 22.7813C40.3161 22.833 40.6336 22.975 41.1094 23.3467C41.5249 23.6708 42.1047 23.6784 42.5283 23.3655C42.9519 23.0527 43.115 22.4958 42.9271 22.0038C42.7275 21.4811 42.6132 20.9953 42.6132 20.6709C42.6132 19.4375 44.5599 18.0633 47.3533 18.0633C50.1469 18.0633 52.0936 19.4375 52.0936 20.6709C52.0936 21.0469 51.9399 21.6359 51.6821 22.2467C51.4697 22.7497 51.6327 23.3327 52.075 23.653C52.5171 23.973 53.1221 23.9456 53.5336 23.5869C54.1802 23.0233 54.6097 22.8358 54.7646 22.7813C55.5232 22.5145 56.3336 23.02 56.7494 23.345C57.6071 24.0155 58.3536 25.1241 58.7982 26.3869C59.1986 27.5244 59.3255 28.6959 59.1774 29.6752C58.4147 29.382 57.5624 29.1844 56.6504 29.1034C56.6302 29.1016 56.6099 29.1 56.5897 29.0983C56.4719 29.0884 56.353 29.0806 56.2333 29.0748C56.2011 29.0733 56.1693 29.0714 56.1371 29.07C55.9963 29.0644 55.8547 29.0608 55.7116 29.0608C55.2313 29.0608 54.7636 29.0927 54.3124 29.1534C54.3122 29.1534 54.3119 29.1534 54.3116 29.1536C53.6133 29.2478 52.9552 29.4122 52.351 29.635C52.0918 27.1064 49.9494 25.1272 47.3535 25.1272C44.5908 25.127 42.3424 27.3688 42.3302 30.1288ZM50.0316 30.1509C50.0316 30.5475 49.9427 30.923 49.7872 31.2619C49.526 31.5397 49.3041 31.8378 49.1263 32.1527C48.6535 32.5719 48.0336 32.8289 47.3535 32.8289C45.8769 32.8289 44.6755 31.6277 44.6755 30.1509C44.6755 28.6744 45.8769 27.473 47.3535 27.473C48.8301 27.473 50.0316 28.6744 50.0316 30.1509ZM10.394 29.9517C10.394 14.7298 22.7779 2.34594 37.9997 2.34594C53.2216 2.34594 65.6055 14.7298 65.6055 29.9517V34.232C64.67 33.7527 63.6938 33.5955 62.7907 33.7862C62.7235 32.7002 62.178 31.7152 61.2943 30.9291C61.7533 29.3727 61.6616 27.4567 61.0108 25.6078C60.413 23.9092 59.4129 22.4492 58.1941 21.4966C56.9927 20.5575 55.6472 20.1859 54.4326 20.4428C54.2676 17.7748 51.2176 15.717 47.3533 15.717C43.5086 15.717 40.4699 17.7544 40.2769 20.4027C39.54 20.2944 38.7621 20.4119 38.0022 20.7397C37.1616 20.3752 36.3002 20.2723 35.4985 20.4427C35.3335 17.7747 32.2835 15.717 28.4193 15.717C24.5752 15.717 21.5369 17.7531 21.3429 20.4008C18.8832 20.0294 16.1966 22.1756 14.9885 25.6078C14.3625 27.3862 14.2546 29.2448 14.6619 30.7736C13.6822 31.5744 13.068 32.603 12.9847 33.7461C12.145 33.6228 11.2524 33.7925 10.394 34.2325V29.9517V29.9517ZM8.84333 39.7302C9.28771 38.4673 10.0344 37.3587 10.8921 36.6884C11.308 36.3633 12.119 35.8577 12.8769 36.1247C13.0238 36.1764 13.3413 36.3184 13.8171 36.6902C14.2322 37.0144 14.8125 37.0219 15.2358 36.7091C15.6594 36.3963 15.8225 35.8394 15.6347 35.3473C15.4352 34.8245 15.3208 34.3388 15.3208 34.0144C15.3208 33.3964 15.8097 32.7431 16.6488 32.245C16.6518 32.2433 16.655 32.242 16.658 32.2403C17.4582 31.7708 18.4818 31.4858 19.5801 31.4211C19.586 31.4208 19.5919 31.4206 19.5979 31.4203C19.751 31.4117 19.9055 31.4069 20.061 31.4069C21.8443 31.4069 23.2813 31.9672 24.0883 32.6931C24.265 32.9931 24.4713 33.2739 24.7044 33.53C24.7677 33.6917 24.8013 33.8544 24.8013 34.0145C24.8013 34.3905 24.6475 34.9795 24.3897 35.5903C24.1774 36.0933 24.3404 36.6762 24.7827 36.9966C24.8361 37.0353 24.8922 37.0684 24.9497 37.0969C24.9691 37.1066 24.9896 37.1128 25.0094 37.1213C25.0483 37.138 25.0871 37.1547 25.1271 37.167C25.1513 37.1744 25.176 37.1786 25.2005 37.1844C25.2374 37.1931 25.274 37.202 25.3111 37.2072C25.3374 37.2108 25.3638 37.2114 25.3902 37.2133C25.4169 37.2152 25.4435 37.2194 25.4702 37.2194C25.4833 37.2194 25.4963 37.2181 25.5093 37.2177C25.5183 37.2173 25.5274 37.217 25.5366 37.2164C25.5927 37.2133 25.6486 37.2061 25.704 37.195C25.7124 37.1933 25.7208 37.1912 25.7293 37.1894C25.7852 37.1767 25.8402 37.1605 25.894 37.1397C25.9007 37.137 25.9072 37.1341 25.914 37.1312C25.969 37.1087 26.0229 37.0827 26.0746 37.0516C26.0786 37.0491 26.0824 37.0463 26.0865 37.0438C26.1402 37.0105 26.1922 36.9733 26.2411 36.9306C26.4027 36.7897 26.5508 36.6723 26.6844 36.5745C27.0854 36.2814 27.356 36.1658 27.4719 36.1248C27.5171 36.1089 27.5625 36.0962 27.608 36.0856C27.6383 36.0786 27.6694 36.0739 27.7005 36.0691C27.7146 36.0669 27.7286 36.0636 27.7429 36.0619C28.0188 36.0278 28.3211 36.0767 28.646 36.2086C28.6547 36.2122 28.6636 36.2145 28.6724 36.2178C28.9885 36.3511 29.2649 36.5387 29.4568 36.6887C30.3144 37.3591 31.061 38.4678 31.5055 39.7305C31.8065 40.5853 31.9554 41.4566 31.9443 42.2627H24.928C24.3733 40.0903 22.391 38.4708 20.0608 38.4708C17.7305 38.4708 15.7482 40.0905 15.1936 42.2627H8.40458C8.39364 41.4562 8.54255 40.585 8.84333 39.7302ZM22.4354 42.2623H17.6871C18.1358 41.405 19.0355 40.8164 20.0613 40.8164C21.0871 40.8164 21.9866 41.4052 22.4354 42.2623ZM60.5854 73.8192C59.881 76.113 57.7952 77.6541 55.3957 77.6541H20.604C18.2044 77.6541 16.1186 76.113 15.414 73.8192L8.07302 49.9213H67.9268L60.5854 73.8192ZM71.2729 47.5752H4.72708C3.90911 47.5752 3.24364 46.9097 3.24364 46.0917C3.24364 45.2737 3.90911 44.6083 4.72708 44.6083H71.2729C72.0908 44.6083 72.7563 45.2737 72.7563 46.0917C72.7563 46.9097 72.0908 47.5752 71.2729 47.5752Z" fill="#F66879"/>
</svg>
