<svg width="64" height="80" viewBox="0 0 64 80" fill="none" xmlns="http://www.w3.org/2000/svg">
<path d="M63.0235 12.0227C62.6029 11.6577 62.02 11.5442 61.4927 11.7249C57.5663 13.0719 53.8578 14.9164 50.446 17.1869C51.569 14.2877 52.1562 11.1761 52.1562 7.97363V6.71875C52.1562 6.20239 51.901 5.71899 51.4744 5.42786C51.0478 5.13733 50.5052 5.07568 50.0242 5.26367C45.7963 6.91956 42.017 9.43481 38.8871 12.5812C38.206 8.33801 36.3804 4.32617 33.5801 1.01196L33.1931 0.554199C32.8965 0.202637 32.4601 0 31.9999 0C31.5397 0 31.1033 0.202637 30.8067 0.554199L30.4197 1.01196C27.6194 4.32556 25.7951 8.33679 25.1133 12.5793C21.9834 9.43298 18.2054 6.91895 13.9787 5.26367C13.4977 5.07568 12.9551 5.13733 12.5279 5.42786C12.1018 5.71899 11.8461 6.20239 11.8461 6.71875V7.97363C11.8461 11.1768 12.4339 14.2896 13.5575 17.1893C10.1444 14.917 6.43472 13.0725 2.50711 11.7249C1.98038 11.5442 1.39688 11.6577 0.976348 12.0227C0.555206 12.3877 0.361114 12.9492 0.464874 13.4961L1.17166 17.1985C2.48392 24.0753 6.07889 30.3595 11.2522 35H3.87491C3.01187 35 2.31241 35.6995 2.31241 36.5625V43.4375C2.31241 44.3005 3.01187 45 3.87491 45H5.03213L12.2166 78.7628C12.3698 79.4843 13.007 80 13.7449 80H50.2555C50.9928 80 51.63 79.4843 51.7838 78.7628L58.9683 45H60.1249C60.9879 45 61.6874 44.3005 61.6874 43.4375V36.5625C61.6874 35.6995 60.9879 35 60.1249 35H52.7476C57.9215 30.3589 61.5159 24.0753 62.8282 17.1985L63.5349 13.4961C63.6393 12.9492 63.4446 12.3877 63.0235 12.0227V12.0227ZM31.9999 4.04724C34.5298 7.45667 35.9495 11.5833 36.0526 15.8392C34.4254 17.9779 33.0595 20.3204 32.0011 22.818C30.9416 20.3186 29.575 17.9761 27.9478 15.8368C28.0509 11.582 29.4706 7.45605 31.9999 4.04724ZM30.4875 28.0389C30.6663 28.7463 31.3011 29.2169 31.9993 29.2169C32.125 29.2169 32.2532 29.2017 32.3808 29.1699C32.9588 29.0253 33.3799 28.5742 33.5166 28.0334C35.6754 19.7656 41.3847 12.8461 49.0025 9.12292C48.7235 14.6613 46.4341 19.8285 42.4851 23.7781C42.4033 23.8599 42.3332 23.949 42.2733 24.0424C39.7947 26.6388 37.5981 29.5197 35.7395 32.641L34.3351 35H29.6653L28.2609 32.641C26.4036 29.5215 24.2088 26.6437 21.7332 24.0485C21.6728 23.9526 21.6013 23.8617 21.5177 23.7781C17.5681 19.8285 15.2787 14.6606 15.0004 9.12292C22.6194 12.8467 28.3299 19.7687 30.4875 28.0389V28.0389ZM4.24112 16.6125L4.0574 15.6488C13.0198 19.3481 20.593 25.8704 25.5753 34.2395L26.0282 35H16.3072C10.0504 30.7336 5.66263 24.0588 4.24112 16.6125ZM58.5624 41.875H57.7183C57.7146 41.875 57.711 41.875 57.7073 41.875H39.0513C38.1883 41.875 37.4888 42.5745 37.4888 43.4375C37.4888 44.3005 38.1883 45 39.0513 45H55.7731L48.9903 76.875H15.0096L8.22671 45H24.9888C25.8518 45 26.5513 44.3005 26.5513 43.4375C26.5513 42.5745 25.8518 41.875 24.9888 41.875H6.29312C6.28946 41.875 6.28519 41.875 6.28152 41.875H5.43741V38.125H15.8433H15.847H28.7748H28.7785H28.7821H35.2177H35.2213H35.225H48.1529H48.1577H58.5624V41.875ZM59.7587 16.6125C58.3378 24.0588 53.95 30.7336 47.6933 35H37.9716L38.4245 34.2395C43.4068 25.871 50.98 19.3488 59.9424 15.6494L59.7587 16.6125Z" fill="#F66879"/>
<path d="M32.02 41.875C31.6093 41.875 31.2064 42.0422 30.9159 42.3328C30.6235 42.6233 30.4575 43.0267 30.4575 43.4375C30.4575 43.8483 30.6235 44.2517 30.9159 44.5422C31.2064 44.8328 31.6093 45 32.02 45C32.4314 45 32.8342 44.8328 33.1248 44.5422C33.4159 44.2517 33.5825 43.8483 33.5825 43.4375C33.5825 43.0267 33.4159 42.6233 33.1248 42.3328C32.8342 42.0422 32.4314 41.875 32.02 41.875Z" fill="#F66879"/>
</svg>
