<svg width="20" height="21" viewBox="0 0 20 21" fill="none" xmlns="http://www.w3.org/2000/svg">
<path d="M15.34 3.64359C15.1027 3.64359 14.8707 3.71397 14.6733 3.84583C14.476 3.97769 14.3222 4.1651 14.2313 4.38437C14.1405 4.60364 14.1168 4.84492 14.1631 5.0777C14.2094 5.31048 14.3236 5.5243 14.4915 5.69212C14.6593 5.85994 14.8731 5.97423 15.1059 6.02054C15.3387 6.06684 15.5799 6.04307 15.7992 5.95225C16.0185 5.86142 16.2059 5.70762 16.3378 5.51028C16.4696 5.31294 16.54 5.08093 16.54 4.84359C16.54 4.52533 16.4136 4.22011 16.1885 3.99507C15.9635 3.77002 15.6583 3.64359 15.34 3.64359ZM19.94 6.06359C19.9206 5.23389 19.7652 4.413 19.48 3.63359C19.2257 2.96673 18.83 2.36287 18.32 1.86359C17.8248 1.35102 17.2196 0.95777 16.55 0.713594C15.7727 0.419755 14.9508 0.260804 14.12 0.243594C13.06 0.183594 12.72 0.183594 10 0.183594C7.28 0.183594 6.94 0.183594 5.88 0.243594C5.04915 0.260804 4.22734 0.419755 3.45 0.713594C2.78168 0.960242 2.17693 1.35315 1.68 1.86359C1.16743 2.35877 0.774176 2.96403 0.53 3.63359C0.236161 4.41094 0.07721 5.23275 0.0599999 6.06359C-5.58794e-08 7.12359 0 7.46359 0 10.1836C0 12.9036 -5.58794e-08 13.2436 0.0599999 14.3036C0.07721 15.1344 0.236161 15.9563 0.53 16.7336C0.774176 17.4032 1.16743 18.0084 1.68 18.5036C2.17693 19.014 2.78168 19.4069 3.45 19.6536C4.22734 19.9474 5.04915 20.1064 5.88 20.1236C6.94 20.1836 7.28 20.1836 10 20.1836C12.72 20.1836 13.06 20.1836 14.12 20.1236C14.9508 20.1064 15.7727 19.9474 16.55 19.6536C17.2196 19.4094 17.8248 19.0162 18.32 18.5036C18.8322 18.0062 19.2283 17.4018 19.48 16.7336C19.7652 15.9542 19.9206 15.1333 19.94 14.3036C19.94 13.2436 20 12.9036 20 10.1836C20 7.46359 20 7.12359 19.94 6.06359ZM18.14 14.1836C18.1327 14.8184 18.0178 15.4473 17.8 16.0436C17.6403 16.4788 17.3839 16.872 17.05 17.1936C16.7256 17.5241 16.3332 17.78 15.9 17.9436C15.3037 18.1613 14.6748 18.2763 14.04 18.2836C13.04 18.3336 12.67 18.3436 10.04 18.3436C7.41 18.3436 7.04 18.3436 6.04 18.2836C5.38089 18.2959 4.72459 18.1944 4.1 17.9836C3.68578 17.8117 3.31136 17.5564 3 17.2336C2.66809 16.9123 2.41484 16.5188 2.26 16.0836C2.01586 15.4787 1.88044 14.8355 1.86 14.1836C1.86 13.1836 1.8 12.8136 1.8 10.1836C1.8 7.55359 1.8 7.18359 1.86 6.18359C1.86448 5.53465 1.98295 4.89154 2.21 4.28359C2.38605 3.8615 2.65627 3.48525 3 3.18359C3.30381 2.83976 3.67929 2.56669 4.1 2.38359C4.70955 2.16364 5.352 2.04867 6 2.04359C7 2.04359 7.37 1.98359 10 1.98359C12.63 1.98359 13 1.98359 14 2.04359C14.6348 2.05087 15.2637 2.16584 15.86 2.38359C16.3144 2.55225 16.7223 2.82644 17.05 3.18359C17.3777 3.49077 17.6338 3.86633 17.8 4.28359C18.0223 4.89253 18.1373 5.53537 18.14 6.18359C18.19 7.18359 18.2 7.55359 18.2 10.1836C18.2 12.8136 18.19 13.1836 18.14 14.1836ZM10 5.05359C8.98581 5.05557 7.99496 5.35812 7.15265 5.92301C6.31035 6.4879 5.65438 7.28979 5.26763 8.22735C4.88089 9.1649 4.78072 10.1961 4.97979 11.1905C5.17886 12.185 5.66824 13.0981 6.38608 13.8146C7.10392 14.531 8.01801 15.0186 9.01286 15.2157C10.0077 15.4129 11.0387 15.3107 11.9755 14.9221C12.9123 14.5336 13.7129 13.876 14.2761 13.0326C14.8394 12.1892 15.14 11.1978 15.14 10.1836C15.1413 9.5087 15.0092 8.8402 14.7512 8.21655C14.4933 7.5929 14.1146 7.0264 13.6369 6.54964C13.1592 6.07289 12.5919 5.69527 11.9678 5.43852C11.3436 5.18177 10.6749 5.05096 10 5.05359ZM10 13.5136C9.34139 13.5136 8.69757 13.3183 8.14995 12.9524C7.60234 12.5865 7.17552 12.0664 6.92348 11.4579C6.67144 10.8495 6.6055 10.1799 6.73398 9.53394C6.86247 8.88799 7.17963 8.29464 7.64533 7.82893C8.11104 7.36322 8.70439 7.04607 9.35035 6.91758C9.99631 6.78909 10.6659 6.85503 11.2743 7.10707C11.8828 7.35911 12.4029 7.78593 12.7688 8.33354C13.1347 8.88116 13.33 9.52498 13.33 10.1836C13.33 10.6209 13.2439 11.0539 13.0765 11.4579C12.9092 11.8619 12.6639 12.229 12.3547 12.5383C12.0454 12.8475 11.6784 13.0928 11.2743 13.2601C10.8703 13.4275 10.4373 13.5136 10 13.5136Z" fill="#989898"/>
</svg>
