<svg width="54" height="80" viewBox="0 0 54 80" fill="none" xmlns="http://www.w3.org/2000/svg">
<path d="M52.9571 13.7164C52.7224 13.4298 52.3671 13.2711 51.996 13.2883C51.8766 13.2939 50.1621 13.3888 47.6803 14.2314L45.5594 8.29281C45.4277 7.92375 45.1202 7.645 44.74 7.55C44.3603 7.45516 43.9575 7.55625 43.6675 7.81984L39.0019 12.0614C38.2303 11.2405 37.5161 10.6042 36.9394 10.1388V4.92938C36.9394 4.55891 36.7642 4.21031 36.4671 3.98922C36.1699 3.76813 35.7857 3.70031 35.4308 3.80688C35.2811 3.85172 33.6491 4.36047 31.4686 5.76234L27.975 0.521875C27.7578 0.195781 27.3919 0 27 0C26.6082 0 26.2422 0.195781 26.025 0.521875L22.5272 5.76875C20.3241 4.34937 18.6838 3.84141 18.5692 3.80703C18.2144 3.70047 17.8302 3.76812 17.533 3.98937C17.2358 4.21047 17.0607 4.55906 17.0607 4.92953V10.1394C16.498 10.5942 15.7828 11.2309 15.0014 12.0644L10.3325 7.81984C10.0427 7.55625 9.64003 7.45484 9.26003 7.55C8.87987 7.645 8.57237 7.92375 8.44065 8.29281L6.31972 14.2314C3.838 13.3888 2.12362 13.2939 2.00409 13.2883C1.633 13.2705 1.27769 13.4298 1.043 13.7164C0.808311 14.003 0.722999 14.3838 0.812843 14.7431L4.40347 29.1058C4.89972 31.0908 6.13925 32.7636 7.89362 33.8164C9.09987 34.5402 10.4499 34.9111 11.8211 34.9111C12.4444 34.9111 13.0722 34.8344 13.6927 34.6794C14.0547 34.5889 14.406 34.4725 14.7463 34.3339L20.858 58.9514C17.4496 59.1228 14.9885 59.4992 13.54 60.0734C12.316 60.5586 11.3541 61.4914 10.8317 62.7002C10.3094 63.9088 10.2888 65.2484 10.7741 66.4725C11.5402 68.4052 13.3997 69.5855 15.3625 69.5855C15.9658 69.5855 16.5789 69.4741 17.173 69.2384C18.4799 68.7205 20.2772 67.5198 22.5255 65.6672L25.863 79.1105L25.8641 79.1102C25.9905 79.6208 26.4505 80 27.0003 80C27.5502 80 28.0102 79.6209 28.1366 79.1102L28.1377 79.1105L32.5955 61.1545C36.2885 60.997 38.9358 60.6117 40.4605 60.0073C41.6846 59.5222 42.6464 58.5894 43.1688 57.3806C43.6911 56.172 43.7117 54.8322 43.2264 53.6083C42.7413 52.3842 41.8085 51.4223 40.5999 50.9C39.3911 50.3777 38.0513 50.357 36.8274 50.8423C35.2549 51.4656 32.9746 53.0738 30.05 55.6217C29.3635 56.2198 28.7252 56.7969 28.1721 57.3075V42.3096V27.3117C28.5357 27.3642 28.9052 27.3941 29.2797 27.3941C29.5825 27.3941 29.8808 27.3744 30.1747 27.34C30.6436 30.3395 32.8566 32.8162 35.8849 33.5734C36.2491 33.6645 36.6155 33.725 36.9819 33.7622L33.8714 41.7463C33.716 42.3746 34.0991 43.0099 34.7274 43.1656C34.8219 43.189 34.9166 43.2001 35.0099 43.2001C35.536 43.2001 36.0144 42.8432 36.1464 42.3096L39.2549 34.3341C39.595 34.4725 39.946 34.5888 40.3078 34.6792C40.9283 34.8344 41.5558 34.9109 42.1792 34.9109C43.5503 34.9109 44.9007 34.5398 46.1067 33.8162C47.8613 32.7636 49.1008 31.0906 49.5969 29.1056L53.1875 14.743C53.2772 14.3838 53.1917 14.003 52.9571 13.7164ZM43.9435 10.7366L45.5014 15.0986C44.5314 15.5425 43.4983 16.0953 42.4342 16.7825C41.8191 15.6756 41.1669 14.7008 40.5175 13.8511L43.9435 10.7366ZM27 3.28453L29.5646 7.13125C28.7297 7.79781 27.8603 8.58563 26.9944 9.51234C26.1299 8.58938 25.2628 7.80359 24.4307 7.13859L27 3.28453ZM19.4042 6.69156C20.8685 7.41516 23.1944 8.82922 25.4661 11.3103C24.3364 12.7731 23.2541 14.5011 22.311 16.537C21.2139 18.9058 21.401 21.6383 22.8117 23.8462C23.0646 24.2419 23.3502 24.6077 23.6619 24.9441C21.236 24.4519 19.4042 22.303 19.4042 19.7339V6.69156ZM17.0605 13.3002V19.7341C17.0605 23.9578 20.4967 27.3941 24.7205 27.3941C25.0942 27.3941 25.4638 27.3664 25.8282 27.3144V43.0825V58.8506C25.1646 58.8458 24.2703 58.8469 23.2519 58.8677L17.0191 33.7622C17.3852 33.725 17.7514 33.6645 18.1153 33.5734C19.5938 33.2039 20.9141 32.4133 21.9332 31.2875C22.3675 30.8077 22.3305 30.0666 21.8507 29.6322C21.3708 29.1978 20.6297 29.2348 20.1955 29.7147C19.4891 30.495 18.5733 31.0431 17.5471 31.2997C15.7747 31.7428 13.9219 31.2558 12.5905 29.9972C11.2707 28.7495 10.685 26.9452 11.0239 25.1706C12.1572 19.238 14.9616 15.4244 17.0605 13.3002ZM25.8282 62.7733V69.2445L24.5164 63.9609C24.9886 63.5419 25.4303 63.1403 25.8282 62.7733ZM10.0566 10.7366L13.4869 13.855C12.8394 14.7033 12.1867 15.6783 11.5705 16.7855C10.5049 16.097 9.47003 15.5431 8.49862 15.0986L10.0566 10.7366ZM9.09956 31.8066C7.8819 31.0759 7.02175 29.9148 6.67722 28.5372L3.51253 15.8786C5.10269 16.2214 7.69644 17.0264 10.5211 18.8984C9.77628 20.5925 9.14222 22.5302 8.72175 24.7308C8.2319 27.295 9.07628 29.9003 10.9803 31.7003C11.3217 32.0231 11.6878 32.3092 12.0722 32.5602C11.0364 32.6087 10.0089 32.3522 9.09956 31.8066ZM16.3091 67.0597C14.9838 67.585 13.4778 66.9342 12.9525 65.6087C12.698 64.9667 12.7088 64.2639 12.9828 63.6298C13.2567 62.9959 13.7613 62.5066 14.4035 62.252C16.3711 61.472 20.8274 61.2384 24.0813 61.1973C21.6836 63.3966 18.278 66.2792 16.3091 67.0597ZM37.691 53.0211C37.9996 52.8987 38.3222 52.8377 38.6444 52.8377C38.9927 52.8377 39.3405 52.9091 39.6699 53.0513C40.3038 53.3253 40.793 53.8298 41.0475 54.4719C41.3021 55.1139 41.2913 55.8167 41.0172 56.4506C40.7433 57.0845 40.2388 57.5739 39.5966 57.8284C37.6291 58.6083 33.1727 58.842 29.9188 58.8831C32.3164 56.6841 35.7221 53.8016 37.691 53.0211ZM28.8346 61.2323C29.2316 61.2323 29.6805 61.2295 30.1633 61.2228L28.1719 69.2445V61.23C28.373 61.2314 28.5939 61.2323 28.8346 61.2323ZM24.7867 22.5847C23.8089 21.0541 23.6783 19.1616 24.4377 17.5223C26.6382 12.7714 29.6871 9.90891 31.8571 8.34422C32.9072 7.58703 33.8599 7.05094 34.5957 6.68875V19.7342C34.5957 22.6656 32.2108 25.0505 29.2794 25.0505C27.4527 25.0505 25.7733 24.1286 24.7867 22.5847ZM32.4546 26.7023C35.0977 25.4931 36.9396 22.8255 36.9396 19.7341V13.2953C39.0628 15.4361 41.8428 19.2381 42.9763 25.1706C43.3152 26.9452 42.7296 28.7495 41.4097 29.9972C40.0783 31.2558 38.2253 31.7427 36.4532 31.2997C34.26 30.7514 32.6835 28.9045 32.4546 26.7023ZM47.3228 28.5373C46.9783 29.915 46.1182 31.0761 44.9005 31.8066C43.991 32.3522 42.9635 32.6088 41.9277 32.5603C42.3121 32.3094 42.6782 32.0231 43.0197 31.7005C44.9239 29.9005 45.7682 27.295 45.2783 24.7309C44.8575 22.5288 44.2263 20.5902 43.4833 18.8961C46.2902 17.0387 48.8908 16.2311 50.4861 15.8842L47.3228 28.5373Z" fill="#F66879"/>
<rect x="31.5829" y="47.675" width="2.3103" height="11.0053" rx="1.15515" transform="rotate(21.2418 31.5829 47.675)" fill="#F66879"/>
<circle cx="33.635" cy="45.5819" r="1.14907" fill="#F66879"/>
</svg>
