<svg width="24" height="28" viewBox="0 0 24 28" fill="none" xmlns="http://www.w3.org/2000/svg">
<path d="M20.503 3.96993C18.3437 1.8107 15.4152 0.597656 12.3616 0.597656C9.30796 0.597656 6.37941 1.8107 4.22018 3.96993C2.06094 6.12917 0.8479 9.05772 0.8479 12.1113C0.8479 15.165 2.06094 18.0935 4.22018 20.2527L11.371 27.4172C11.4972 27.5443 11.6473 27.6453 11.8126 27.7142C11.978 27.7831 12.1553 27.8185 12.3344 27.8185C12.5136 27.8185 12.6909 27.7831 12.8563 27.7142C13.0216 27.6453 13.1717 27.5443 13.2978 27.4172L20.503 20.1849C22.6532 18.0346 23.8612 15.1183 23.8612 12.0774C23.8612 9.03653 22.6532 6.12018 20.503 3.96993ZM18.5626 18.2445L12.3616 24.4727L6.16055 18.2445C4.93546 17.0183 4.10142 15.4564 3.76385 13.7563C3.42627 12.0562 3.60033 10.2941 4.26401 8.69287C4.92769 7.09164 6.0512 5.72312 7.49252 4.7603C8.93384 3.79748 10.6283 3.28359 12.3616 3.28359C14.0949 3.28359 15.7893 3.79748 17.2306 4.7603C18.672 5.72312 19.7955 7.09164 20.4591 8.69287C21.1228 10.2941 21.2969 12.0562 20.9593 13.7563C20.6217 15.4564 19.7877 17.0183 18.5626 18.2445ZM8.29088 7.94565C7.19547 9.04443 6.58036 10.5327 6.58036 12.0842C6.58036 13.6357 7.19547 15.124 8.29088 16.2227C9.10469 17.038 10.1411 17.5947 11.2702 17.8231C12.3992 18.0515 13.5705 17.9414 14.6372 17.5066C15.7039 17.0718 16.6184 16.3317 17.2661 15.3791C17.9137 14.4265 18.2656 13.3039 18.2777 12.152C18.2838 11.383 18.1356 10.6205 17.842 9.90961C17.5483 9.19877 17.1151 8.55403 16.568 8.0135C16.0302 7.46338 15.3889 7.02505 14.6811 6.72372C13.9733 6.42239 13.2128 6.26401 12.4435 6.25771C11.6743 6.2514 10.9113 6.39729 10.1986 6.68698C9.48596 6.97666 8.8376 7.40443 8.29088 7.94565ZM14.6547 14.2959C14.1405 14.818 13.461 15.1452 12.7322 15.2217C12.0034 15.2982 11.2707 15.1191 10.6594 14.7151C10.048 14.3112 9.59594 13.7074 9.38048 13.007C9.16502 12.3066 9.19953 11.5532 9.47811 10.8754C9.75669 10.1977 10.262 9.63773 10.9078 9.29134C11.5535 8.94495 12.2995 8.83362 13.0182 8.97638C13.737 9.11913 14.3838 9.50712 14.8481 10.074C15.3124 10.6409 15.5654 11.3514 15.5639 12.0842C15.5441 12.9218 15.1927 13.7173 14.5869 14.2959H14.6547Z" fill="white"/>
</svg>
