<svg width="21" height="17" viewBox="0 0 21 17" fill="none" xmlns="http://www.w3.org/2000/svg">
<path d="M17.3545 0.574219H3.35449C2.55884 0.574219 1.79578 0.890289 1.23317 1.4529C0.670563 2.01551 0.354492 2.77857 0.354492 3.57422V13.5742C0.354492 14.3699 0.670563 15.1329 1.23317 15.6955C1.79578 16.2581 2.55884 16.5742 3.35449 16.5742H17.3545C18.1501 16.5742 18.9132 16.2581 19.4758 15.6955C20.0384 15.1329 20.3545 14.3699 20.3545 13.5742V3.57422C20.3545 2.77857 20.0384 2.01551 19.4758 1.4529C18.9132 0.890289 18.1501 0.574219 17.3545 0.574219ZM16.9445 2.57422L11.0645 8.45422C10.9715 8.54795 10.8609 8.62234 10.7391 8.67311C10.6172 8.72388 10.4865 8.75002 10.3545 8.75002C10.2225 8.75002 10.0918 8.72388 9.96992 8.67311C9.84806 8.62234 9.73746 8.54795 9.64449 8.45422L3.76449 2.57422H16.9445ZM18.3545 13.5742C18.3545 13.8394 18.2491 14.0938 18.0616 14.2813C17.8741 14.4689 17.6197 14.5742 17.3545 14.5742H3.35449C3.08928 14.5742 2.83492 14.4689 2.64739 14.2813C2.45985 14.0938 2.35449 13.8394 2.35449 13.5742V3.98422L8.23449 9.86422C8.79699 10.426 9.55949 10.7416 10.3545 10.7416C11.1495 10.7416 11.912 10.426 12.4745 9.86422L18.3545 3.98422V13.5742Z" fill="white"/>
</svg>
