<svg width="20" height="21" viewBox="0 0 20 21" fill="none" xmlns="http://www.w3.org/2000/svg">
<path d="M13.4036 11.5745C13.138 11.2871 12.8396 11.0317 12.5145 10.8136C13.8252 9.80037 14.7438 8.36386 15.1136 6.74905C15.1414 6.63219 15.1458 6.51099 15.1264 6.39244C15.1071 6.2739 15.0645 6.16035 15.001 6.05838C14.9375 5.95641 14.8545 5.86802 14.7566 5.79834C14.6588 5.72865 14.5481 5.67904 14.431 5.65237C14.3139 5.6257 14.1927 5.62251 14.0743 5.64297C13.956 5.66344 13.8428 5.70715 13.7415 5.7716C13.6401 5.83604 13.5525 5.91993 13.4838 6.01842C13.415 6.11691 13.3665 6.22805 13.3409 6.34541C13.1689 7.10091 12.8341 7.80979 12.3599 8.4226C11.8857 9.03542 11.2836 9.53742 10.5955 9.89359V6.54905C10.5897 6.48227 10.5763 6.41638 10.5555 6.35268C10.5493 6.30006 10.5386 6.24805 10.5236 6.19723C10.4849 6.11419 10.4337 6.03755 10.3718 5.96996C10.3555 5.95178 10.3473 5.92632 10.33 5.90814C10.2634 5.84668 10.1881 5.79551 10.1064 5.75632C10.0827 5.74359 10.0655 5.72268 10.0409 5.71268C9.97141 5.68941 9.89939 5.67446 9.82636 5.66814C9.78115 5.65497 9.73494 5.64555 9.68818 5.63996L9.09364 5.63814H9.09091C8.87792 5.63663 8.67124 5.71033 8.50726 5.84626C8.34328 5.98218 8.23252 6.17161 8.1945 6.38118C8.15647 6.59075 8.19362 6.80701 8.2994 6.99188C8.40517 7.17675 8.57279 7.31836 8.77273 7.39178V11.8372C7.33209 10.3419 6.3781 8.44532 6.03636 6.39723C5.9961 6.1595 5.86305 5.9475 5.66647 5.80787C5.4699 5.66824 5.22591 5.61242 4.98818 5.65268C4.75045 5.69295 4.53845 5.826 4.39882 6.02258C4.25919 6.21915 4.20337 6.46314 4.24364 6.70087C4.77485 9.86698 6.54034 12.6931 9.15273 14.559C9.19005 14.5812 9.22895 14.6007 9.26909 14.6172C9.30073 14.6357 9.33353 14.6521 9.36727 14.6663C9.46857 14.7069 9.57637 14.7287 9.68546 14.7309C9.81926 14.7292 9.95099 14.6975 10.0709 14.6381C10.08 14.6336 10.09 14.6363 10.0991 14.6318C10.1794 14.5897 10.253 14.5358 10.3173 14.4718C10.3309 14.459 10.3391 14.4445 10.3518 14.4309C10.4105 14.3665 10.4595 14.2939 10.4973 14.2154C10.5098 14.1896 10.521 14.1632 10.5309 14.1363C10.5708 14.0361 10.5924 13.9296 10.5945 13.8218V11.889C11.1582 12.0543 11.6662 12.3702 12.0636 12.8027L13.5609 14.4363C13.7239 14.614 13.9508 14.7197 14.1917 14.7301C14.4326 14.7405 14.6678 14.6548 14.8455 14.4918C15.0232 14.3288 15.1288 14.1019 15.1392 13.861C15.1496 13.6201 15.0639 13.3849 14.9009 13.2072L13.4036 11.5745ZM12.7936 0.183594H7.21546C1.61818 0.183594 0 1.79996 0 7.38996V12.9681C0 18.5654 1.61636 20.1836 7.20636 20.1836H12.7845C18.3818 20.1836 20 18.5672 20 12.9772V7.39905C20 1.80178 18.3836 0.183594 12.7936 0.183594ZM18.1818 12.9772C18.1818 17.559 17.3745 18.3654 12.7836 18.3654H7.20727C2.62455 18.3654 1.81818 17.5581 1.81818 12.9672V7.39087C1.81818 2.80814 2.62545 2.00178 7.21636 2.00178H12.7936C17.3755 2.00178 18.1818 2.80905 18.1818 7.39996V12.9772Z" fill="#989898"/>
</svg>
