<svg width="16" height="16" viewBox="0 0 16 16" fill="none" xmlns="http://www.w3.org/2000/svg">
<g clip-path="url(#clip0)">
<path d="M0.72731 8.72726L13.517 8.72727L11.1222 11.1221C10.8381 11.4061 10.8381 11.8666 11.1222 12.1506C11.4061 12.4346 11.8667 12.4346 12.1507 12.1506L15.787 8.51427C16.0711 8.2303 16.0711 7.76979 15.787 7.48576L12.1507 3.8494C12.0086 3.70739 11.8225 3.63636 11.6364 3.63636C11.4503 3.63636 11.2641 3.70739 11.1222 3.8494C10.8381 4.13338 10.8381 4.59388 11.1222 4.87791L13.517 7.27272L0.72731 7.27272C0.325661 7.27272 3.66562e-05 7.59834 3.66211e-05 7.99999C3.6586e-05 8.40164 0.325661 8.72726 0.72731 8.72726Z" fill="#475D7E"/>
</g>
<defs>
<clipPath id="clip0">
<rect x="16" y="16" width="16" height="16" transform="rotate(-180 16 16)" fill="white"/>
</clipPath>
</defs>
</svg>
