<svg width="30" height="30" viewBox="0 0 30 30" fill="none" xmlns="http://www.w3.org/2000/svg">
<path d="M29.2285 22.127L25.4991 18.3975C24.4708 17.3694 22.7978 17.3694 21.7696 18.3975L20.0744 20.0927C19.2955 20.8716 18.028 20.8714 17.2493 20.093L9.90166 12.7391C9.1209 11.9583 9.12078 10.6946 9.90166 9.91372C10.1747 9.64067 10.9588 8.85663 11.5968 8.21854C12.6205 7.19491 12.6348 5.52704 11.5958 4.48817L7.8674 0.771446C6.83919 -0.256699 5.16616 -0.256699 4.14071 0.768751C3.37337 1.52942 3.12587 1.77481 2.7818 2.11588C-0.926017 5.82364 -0.926018 11.8566 2.78163 15.5643L14.4238 27.2125C18.1403 30.929 24.1555 30.9293 27.8723 27.2125L29.2285 25.8563C30.2567 24.8281 30.2567 23.1552 29.2285 22.127ZM5.38114 2.01457C5.72386 1.67186 6.28144 1.6718 6.62527 2.01551L10.3537 5.73223C10.6972 6.07577 10.6972 6.63176 10.3537 6.97536L9.73209 7.59692L4.76274 2.62758L5.38114 2.01457ZM15.6671 25.9695L4.02493 14.3212C1.15629 11.4526 0.998615 6.94817 3.54001 3.89116L8.49494 8.84608C7.19298 10.322 7.24724 12.571 8.65824 13.982L16.0057 21.3356C16.0057 21.3356 16.0059 21.3358 16.0059 21.3358C17.4154 22.7454 19.6643 22.8031 21.142 21.4994L26.0971 26.4545C23.0498 28.9915 18.5555 28.8579 15.6671 25.9695ZM27.9854 24.6132L27.3638 25.2348L22.3912 20.2622L23.0127 19.6406C23.3555 19.2979 23.9132 19.2979 24.2559 19.6406L27.9854 23.3701C28.3281 23.7129 28.3281 24.2705 27.9854 24.6132Z" fill="#475D7E"/>
</svg>
